HIERARCHY
ROOT Hips
{
  OFFSET 0 0 0
  CHANNELS 6 Xposition Yposition Zposition Zrotation Yrotation Xrotation
  JOINT LeftThigh
  {
    OFFSET 8.409438 0 -5.917753
    CHANNELS 3 Zrotation Yrotation Xrotation
    JOINT LeftLeg
    {
      OFFSET 0 0 -42.358652
      CHANNELS 3 Zrotation Yrotation Xrotation
      JOINT LeftFoot
      {
        OFFSET 0 0 -39.357303
        CHANNELS 3 Zrotation Yrotation Xrotation
      }
    }
  }
  JOINT RightThigh
  {
    OFFSET -8.409438 0 -5.917753
    CHANNELS 3 Zrotation Yrotation Xrotation
    JOINT RightLeg
    {
      OFFSET 0 0 -42.358652
      CHANNELS 3 Zrotation Yrotation Xrotation
      JOINT RightFoot
      {
        OFFSET 0 0 -39.357303
        CHANNELS 3 Zrotation Yrotation Xrotation
      }
    }
  }
  JOINT SpineLow
  {
    OFFSET 0 0 4.719101
    CHANNELS 3 Zrotation Yrotation Xrotation
    JOINT SpineMid
    {
      OFFSET 0 0 12.899191
      CHANNELS 3 Zrotation Yrotation Xrotation
      JOINT Chest
      {
        OFFSET 0 0 12.899191
        CHANNELS 3 Zrotation Yrotation Xrotation
        JOINT LeftShoulder
        {
          OFFSET 7.550562 1.41573 9.438202
          CHANNELS 3 Zrotation Yrotation Xrotation
          JOINT LeftArm
          {
            OFFSET 9.155056 0 4.247191
            CHANNELS 3 Zrotation Yrotation Xrotation
            JOINT LeftForearm
            {
              OFFSET 0 0 25.771955
              CHANNELS 3 Zrotation Yrotation Xrotation
              JOINT LeftHand
              {
                OFFSET 0 0 25.197169
                CHANNELS 3 Zrotation Yrotation Xrotation
              }
            }
          }
        }
        JOINT RightShoulder
        {
          OFFSET -7.550562 1.41573 9.438202
          CHANNELS 3 Zrotation Yrotation Xrotation
          JOINT RightArm
          {
            OFFSET -9.155056 0 4.247191
            CHANNELS 3 Zrotation Yrotation Xrotation
            JOINT RightForearm
            {
              OFFSET 0 0 -25.771955
              CHANNELS 3 Zrotation Yrotation Xrotation
              JOINT RightHand
              {
                OFFSET 0 0 -25.197169
                CHANNELS 3 Zrotation Yrotation Xrotation
              }
            }
          }
        }
        JOINT Neck
        {
          OFFSET 0 0 15.101124
          CHANNELS 3 Zrotation Yrotation Xrotation
          JOINT Head
          {
            OFFSET 0 0 11.325843
            CHANNELS 3 Zrotation Yrotation Xrotation
            End Site
            {
              OFFSET 0 0 14.157303
            }
          }
        }
      }
    }
  }
}
MOTION
Frames: 11
Frame Time: 0.0
0.0  93.25843  0.0  -2.075755  -20.163468  -88.059844  19.367166  -14.012593  2.192115  0.236909  -2.116996  9.086432  6.488737  1.31221  0.803956  -2.838578  1.495381  -11.054344  0.405049  5.531731  7.360226  1.764135  1.472226  0.025832  1.615542  -1.547064  -0.517208  4.454324  -4.191756  -1.518319  4.454324  -4.191756  -1.518319  -31.250789  31.585305  -15.182162  138.906528  59.751232  -143.611734  -21.579666  8.170279  104.410545  63.932655  -22.567351  7.695544  -7.180244  -4.332991  22.745413  82.409075  46.187386  19.263217  -6.164485  -20.631502  -113.757356  60.671326  12.866615  -19.071821  -3.940558  10.083269  9.876092  -3.113163  7.501663  7.453763  
0.0  93.25843  0.0  -1.947443  -20.511205  -88.041192  18.952258  -13.868482  1.958473  0.693142  -2.101814  9.369145  6.798351  1.390134  0.940692  -2.807782  1.515895  -11.283515  0.592418  5.706909  7.596576  1.820755  1.471148  0.004911  1.627745  -1.533237  -0.515399  4.487212  -4.153815  -1.513174  4.487211  -4.153814  -1.513174  -31.274963  31.354785  -15.114109  139.116168  59.391283  -143.468265  -21.262991  7.658808  104.569253  64.122194  -22.490351  7.199905  -6.879307  -4.375202  22.999596  82.78696  46.195469  19.478542  -6.516641  -20.713122  -113.875329  60.620154  12.855863  -19.236372  -3.784386  10.163303  9.863081  -2.997294  7.564273  7.441603  
0.0  93.25843  0.0  -1.864028  -21.015846  -88.069861  19.321278  -13.774074  2.08363  0.829162  -2.087714  9.429088  6.928633  1.441416  0.924138  -2.588234  1.498255  -11.44847  0.730903  5.849859  7.840279  1.864649  1.475817  -0.012857  1.673083  -1.527564  -0.500841  4.610209  -4.138245  -1.475782  4.610209  -4.138245  -1.475782  -31.259796  31.221062  -15.022068  139.066265  59.108833  -143.515936  -21.150194  7.479371  104.723631  64.31087  -22.478983  7.053372  -6.895163  -4.374445  23.082764  83.044606  46.178372  19.52587  -6.455698  -20.867752  -114.024529  60.588272  12.890505  -19.383384  -3.596964  10.227909  9.875955  -2.858258  7.61566  7.448195  
0.0  93.25843  0.0  -1.727659  -21.409283  -88.026657  18.603866  -13.657715  1.695838  1.073669  -2.117217  9.551237  7.629168  1.649951  1.466878  -2.610856  1.510126  -11.772289  0.785876  6.043558  8.072233  2.139484  1.483245  0.018988  1.663527  -1.513241  -0.519615  4.584815  -4.098037  -1.525511  4.584815  -4.098037  -1.525511  -30.922081  31.156048  -14.79646  139.204121  58.720945  -143.257189  -21.194707  7.227811  104.732927  64.145742  -22.353217  7.121765  -6.57592  -4.392568  23.386755  83.659803  46.055786  19.894343  -6.754003  -20.973338  -114.140812  60.561364  12.976251  -19.49857  -3.328517  10.29465  9.924888  -2.659264  7.669772  7.480332  
0.0  93.25843  0.0  -1.654674  -21.988817  -88.063877  18.867465  -13.619224  1.784953  1.378163  -2.017349  9.794117  7.639972  1.715669  1.445373  -2.363609  1.475931  -11.9704  0.963805  6.207755  8.386811  2.167317  1.492656  -0.00309  1.710085  -1.512154  -0.506431  4.711375  -4.094882  -1.492247  4.711375  -4.094881  -1.492247  -30.858558  31.08127  -14.705912  139.202538  58.410195  -143.223046  -21.147474  7.183882  104.694724  64.027878  -22.485575  7.075017  -6.593161  -4.343195  23.468444  83.845473  45.994532  19.900893  -6.585435  -21.073673  -114.24539  60.535847  13.075621  -19.526857  -3.106571  10.355963  9.959376  -2.49475  7.719175  7.502396  
0.0  93.25843  0.0  -1.570468  -22.443116  -88.04258  17.948375  -13.662902  1.297397  1.721799  -1.873052  10.179263  8.358714  1.891291  2.032802  -2.440468  1.428682  -12.327261  1.111637  6.400022  8.719818  2.418453  1.487221  0.025081  1.723156  -1.509864  -0.499831  4.746672  -4.088793  -1.474834  4.746673  -4.088793  -1.474834  -30.769637  30.966241  -14.653472  139.372478  58.007706  -142.963003  -21.099189  7.421819  104.679862  64.07413  -22.517094  7.108172  -6.582154  -4.264161  23.514021  84.25935  45.815853  20.036607  -6.56995  -21.087541  -114.306632  60.56104  13.198109  -19.472791  -2.841241  10.43405  9.980107  -2.29782  7.781947  7.513388  
0.0  93.25843  0.0  -1.519309  -23.107861  -88.110646  18.1463  -13.695667  1.29003  1.910638  -1.660465  10.629001  8.449135  1.934995  2.061629  -2.21569  1.356164  -12.553156  1.362693  6.592878  9.140955  2.436851  1.500313  -0.01283  1.779723  -1.517029  -0.48131  4.900525  -4.108413  -1.428207  4.900525  -4.108413  -1.428207  -30.74239  30.913552  -14.575441  139.398468  57.601945  -142.857761  -21.196659  7.617431  104.586518  63.955086  -22.620294  7.38209  -6.639049  -4.104543  23.633943  84.31176  45.734029  19.905952  -6.313774  -21.094969  -114.362494  60.53797  13.324257  -19.426023  -2.621505  10.545605  10.031642  -2.136091  7.868997  7.548155  
0.0  93.25843  0.0  -1.464243  -23.716726  -88.185023  17.582685  -13.81351  0.90131  2.345836  -1.366816  11.402129  8.712361  1.986917  2.225215  -2.404834  1.249084  -12.912721  1.697277  6.848346  9.628294  2.741585  1.495363  0.011484  1.829602  -1.527433  -0.469287  5.03656  -4.136609  -1.399224  5.03656  -4.136609  -1.399224  -30.905072  30.796597  -14.548637  139.767652  57.060563  -142.491038  -20.943053  7.987478  104.933533  64.411011  -22.264475  7.297631  -6.86792  -3.911729  23.719975  84.515459  45.567477  19.848917  -5.923209  -21.177408  -114.456191  60.488847  13.405313  -19.364434  -2.368865  10.682653  10.132112  -1.951066  7.975585  7.618838  
0.0  93.25843  0.0  -1.426538  -24.448121  -88.34004  17.814734  -13.944663  0.852437  2.5317  -1.078534  12.099982  8.732625  2.025095  2.240041  -2.311492  1.133581  -13.101798  2.017355  7.093251  10.161238  2.738225  1.522768  -0.049638  1.906714  -1.53714  -0.445317  5.246352  -4.1633  -1.339265  5.246351  -4.1633  -1.339265  -30.973028  30.780087  -14.407598  139.918551  56.586952  -142.234593  -20.912462  7.878596  104.867539  64.243495  -22.294498  7.604903  -6.896547  -3.740684  24.043515  84.522187  45.538437  19.725139  -5.552236  -21.33531  -114.579283  60.351553  13.463697  -19.298178  -2.172027  10.80628  10.228453  -1.80756  8.071276  7.687314  
0.0  93.25843  0.0  -1.372506  -25.074016  -88.514029  17.655714  -14.117051  0.621305  2.531025  -0.766422  12.748921  8.893737  2.062289  2.392494  -2.596016  0.982614  -13.302325  2.269316  7.418628  10.634166  3.176248  1.553417  -0.020379  1.975491  -1.536232  -0.410068  5.432337  -4.16224  -1.247108  5.432336  -4.16224  -1.247108  -31.186559  30.668999  -14.334652  140.155907  56.057548  -141.837739  -20.740291  7.893119  105.085771  64.451244  -22.027073  7.729657  -7.20608  -3.589523  24.14479  84.879264  45.33347  19.708245  -5.091947  -21.634446  -114.733327  60.185443  13.492302  -19.221914  -1.967001  10.867346  10.300028  -1.6565  8.120297  7.737091  
0.0  93.25843  0.0  -1.301038  -25.735722  -88.755176  17.920121  -14.362048  0.567079  2.582056  -0.35958  13.571178  8.920096  2.091774  2.440623  -3.029018  0.808352  -13.39878  2.88541  7.756338  11.164985  3.232637  1.565474  -0.079637  2.054386  -1.534625  -0.366281  5.645462  -4.160002  -1.13218  5.645463  -4.160002  -1.13218  -31.386069  30.706336  -14.190295  140.185976  55.596418  -141.571583  -20.724068  7.604942  105.030165  64.329733  -22.002976  8.04585  -7.145948  -3.505015  24.549109  85.017712  45.339337  19.634868  -4.809187  -22.000207  -114.836036  60.019569  13.516098  -19.107244  -1.811648  10.901081  10.358917  -1.54193  8.148059  7.778275  
